# xmcd
#
# Track frame offsets: 
#        187
#        19842
#        37842
#        56910
#        83115
#        107940
#        123960
#        144747
#        166320
#        193500
#        216505
#
# Disc length: 3180 seconds
#
# Revision: 4
# Processed by: cddbd v1.5.2PL0 Copyright (c) Steve Scherf et al.
# Submitted via: ExactAudioCopy v0.99pb5
#
DISCID=9c0c6a0b
DTITLE=Bobby Parker - Bent Out Of Shape
DYEAR=1993
DGENRE=
TTITLE0=Fast Train
TTITLE1=It's Hard But It's Fair
TTITLE2=Bent Out Of Shape
TTITLE3=So Glad I Found You
TTITLE4=I Call Her Baby
TTITLE5=Watch Your Step
TTITLE6=Break It Up
TTITLE7=Let That Be The Reason
TTITLE8=I've Got A Way With Women
TTITLE9=Bobby-A-Go-Go
TTITLE10=Blues Get Off My Shoulder
EXTD=
EXTT0=
EXTT1=
EXTT2=
EXTT3=
EXTT4=
EXTT5=
EXTT6=
EXTT7=
EXTT8=
EXTT9=
EXTT10=
PLAYORDER=
